<svg width="1200" height="630" viewBox="0 0 1200 630" xmlns="http://www.w3.org/2000/svg">
  <defs>
    <linearGradient id="bg" x1="0" y1="0" x2="1" y2="1">
      <stop offset="0%" stop-color="#10141c"/>
      <stop offset="100%" stop-color="#161c28"/>
    </linearGradient>
    <radialGradient id="glow" cx="50%" cy="50%" r="50%">
      <stop offset="0%" stop-color="#c92a3d" stop-opacity="0.35"/>
      <stop offset="100%" stop-color="#c92a3d" stop-opacity="0"/>
    </radialGradient>
    <pattern id="grid" width="40" height="40" patternUnits="userSpaceOnUse">
      <path d="M 40 0 L 0 0 0 40" fill="none" stroke="#2a3242" stroke-width="1" opacity="0.4"/>
    </pattern>
  </defs>

  <rect width="1200" height="630" fill="url(#bg)"/>
  <rect width="1200" height="630" fill="url(#grid)"/>
  <circle cx="860" cy="310" r="270" fill="url(#glow)"/>

  <g stroke="#3a4358" stroke-width="2" fill="none" opacity="0.6">
    <path d="M 1140 40 L 1160 40 L 1160 60"/>
    <path d="M 40 570 L 40 590 L 60 590"/>
  </g>

  <text x="70" y="90" font-family="ui-monospace, SFMono-Regular, Menlo, monospace" font-size="15" letter-spacing="3" fill="#8b96ab">AUDIT BENCH &#183; SECURITY REVIEW</text>
  <circle cx="80" cy="119" r="5" fill="#c92a3d"/>
  <text x="98" y="124" font-family="ui-monospace, SFMono-Regular, Menlo, monospace" font-size="13" letter-spacing="3" fill="#c92a3d">CRITICAL RISK</text>

  <text x="70" y="560" font-family="ui-sans-serif, system-ui, sans-serif" font-size="30" font-weight="700" fill="#e8ecf4">Broken Access Control</text>

  <g transform="translate(860,320)">
    <path d="M 0 -140 L 105 -100 L 105 10 C 105 80 55 130 0 150 C -55 130 -105 80 -105 10 L -105 -100 Z" fill="rgba(232,236,244,0.04)" stroke="#e8ecf4" stroke-width="10" stroke-linejoin="round"/>
    <circle cx="0" cy="-20" r="24" fill="#c92a3d"/>
    <path d="M -12 0 L 12 0 L 20 55 L -20 55 Z" fill="#c92a3d"/>
    <path d="M -60 -110 L -20 -60 L -45 -20 L 10 20 L -15 70 L 30 130" fill="none" stroke="#10141c" stroke-width="16" stroke-linecap="round" stroke-linejoin="round"/>
    <path d="M -60 -110 L -20 -60 L -45 -20 L 10 20 L -15 70 L 30 130" fill="none" stroke="#c92a3d" stroke-width="4" stroke-linecap="round" stroke-linejoin="round" opacity="0.95"/>
  </g>

  <rect x="0" y="606" width="1200" height="6" fill="#c92a3d"/>
</svg>
