<svg width="1200" height="630" viewBox="0 0 1200 630" xmlns="http://www.w3.org/2000/svg">
  <defs>
    <linearGradient id="bg" x1="0" y1="0" x2="1" y2="1">
      <stop offset="0%" stop-color="#10141c"/>
      <stop offset="100%" stop-color="#161c28"/>
    </linearGradient>
    <radialGradient id="glow" cx="50%" cy="50%" r="50%">
      <stop offset="0%" stop-color="#c92a3d" stop-opacity="0.35"/>
      <stop offset="100%" stop-color="#c92a3d" stop-opacity="0"/>
    </radialGradient>
    <pattern id="grid" width="40" height="40" patternUnits="userSpaceOnUse">
      <path d="M 40 0 L 0 0 0 40" fill="none" stroke="#2a3242" stroke-width="1" opacity="0.4"/>
    </pattern>
  </defs>

  <rect width="1200" height="630" fill="url(#bg)"/>
  <rect width="1200" height="630" fill="url(#grid)"/>
  <circle cx="860" cy="310" r="270" fill="url(#glow)"/>

  <g stroke="#3a4358" stroke-width="2" fill="none" opacity="0.6">
    <path d="M 1140 40 L 1160 40 L 1160 60"/>
    <path d="M 40 570 L 40 590 L 60 590"/>
  </g>

  <text x="70" y="90" font-family="ui-monospace, SFMono-Regular, Menlo, monospace" font-size="15" letter-spacing="3" fill="#8b96ab">AUDIT BENCH &#183; SECURITY REVIEW</text>
  <circle cx="80" cy="119" r="5" fill="#c92a3d"/>
  <text x="98" y="124" font-family="ui-monospace, SFMono-Regular, Menlo, monospace" font-size="13" letter-spacing="3" fill="#c92a3d">CRITICAL RISK</text>

  <text x="70" y="560" font-family="ui-sans-serif, system-ui, sans-serif" font-size="30" font-weight="700" fill="#e8ecf4">Server-Side Request Forgery</text>

  <g transform="translate(860,300)">
    <rect x="-140" y="-40" width="90" height="120" rx="8" fill="rgba(232,236,244,0.05)" stroke="#e8ecf4" stroke-width="9"/>
    <line x1="-125" y1="-15" x2="-65" y2="-15" stroke="#e8ecf4" stroke-width="5" opacity="0.6"/>
    <line x1="-125" y1="10" x2="-65" y2="10" stroke="#e8ecf4" stroke-width="5" opacity="0.6"/>
    <circle cx="-118" cy="60" r="4" fill="#e8ecf4"/>
    <path d="M -95 -40 C -20 -90 90 -70 120 -10" fill="none" stroke="#c92a3d" stroke-width="8" stroke-linecap="round"/>
    <path d="M 120 -10 C 130 30 90 65 60 60" fill="none" stroke="#c92a3d" stroke-width="8" stroke-linecap="round"/>
    <polygon points="60,60 78,50 76,72" fill="#c92a3d"/>
    <line x1="10" y1="10" x2="10" y2="80" stroke="#3a4358" stroke-width="4" stroke-dasharray="6 6"/>
    <circle cx="55" cy="30" r="26" fill="#10141c" stroke="#c92a3d" stroke-width="7"/>
    <path d="M 45 30 L 45 22 C 45 14 65 14 65 22 L 65 30" fill="none" stroke="#c92a3d" stroke-width="5"/>
    <rect x="43" y="30" width="24" height="18" rx="3" fill="#c92a3d"/>
  </g>

  <rect x="0" y="606" width="1200" height="6" fill="#c92a3d"/>
</svg>
